<svg id="Layer_1" data-name="Layer 1" xmlns="http://www.w3.org/2000/svg" viewBox="0 0 600 600"><path d="M474.45,497.32c-28.52-1.55-52.75-11.91-71.49-32.95-22.2-24.92-47.36-46.3-74.12-66-12.9-9.5-25.63-19.26-35.44-32.1C264.19,328.07,256.74,275.86,298,231c14.43-15.68,31.46-28.21,48.51-40.76,5.5-4,10.95-8.16,16.53-12.09,13.76-9.66,26.13-20.73,35.11-35.09,17.22-27.53,61.93-42.86,89.43-37.66,37.62,7.13,60.78,30,72,65.52a109.69,109.69,0,0,1,.67,65.43c-11.34,38.25-10.52,76.9-2.82,115.68,3.23,16.29,7.87,32.28,7.55,49.22-.73,39.59-28.38,79.74-63.78,90.8C492.6,494.77,483.4,495.62,474.45,497.32Zm-98.71-163.5c-.12,25.66,25.51,44.09,50.95,36.64,10.08-3,19.48-7.71,26.47-15.39,13.07-14.36,25.43-29.38,37.73-44.42,4.78-5.84,4.1-12.66-.15-18.58-8.52-11.88-16.89-23.94-26.33-35.07s-20.74-20.76-34.53-26.57c-16.87-7.11-34.7-1.82-47.14,13.59-10.9,13.5-11.25,28.75-.17,44,5.69,7.86,6.06,14.93.54,22.84A38.79,38.79,0,0,0,375.74,333.82Z"/><path d="M157.71,284.68c-31.12-2.34-61.84-3.49-90.93-14.63a87.8,87.8,0,0,1-13.51-6.39c-16-9.52-21.2-23-15.7-40.87,6.14-20,18.3-36.18,33.41-50.13,25-23,53.91-38.71,88.13-42,36.79-3.58,68,8,89.56,39.13,20.53,29.71,15.4,63.35-11.13,87.83-16.81,15.52-36.79,22.88-59,25.36C171.44,283.74,164.28,284.15,157.71,284.68Z"/><path d="M172.15,469.62C110.4,468,66.92,438.1,39.56,383.49a52.23,52.23,0,0,1-3.77-11.84C32.92,359.16,37,349,46.89,341.16,57.55,332.67,70.38,328.92,83.1,325c18.3-5.67,37.35-6.13,56.17-8.36,20.9-2.48,41.31-.14,61.2,5.61,30.49,8.82,50.33,29,58.65,59.75,3.93,14.5,1,28.51-6.4,41.37C237.87,449.25,211.67,470.94,172.15,469.62Z"/><path d="M312.63,146.47c-33.2-1.6-61.22-14.39-85.21-36.49a234.87,234.87,0,0,1-20.2-21.4C196,75.3,196,61.11,207.35,47.89c12.84-15,30-22.36,49-25.5a141.23,141.23,0,0,1,71.27,6.77c32.95,11.77,50.92,45.84,42.94,79.9-4.15,17.71-16.53,27.71-33.06,32.77C329.5,144.29,320.94,145,312.63,146.47Z"/><path d="M314.41,455c13.06-.68,24.95,3.37,36.25,9.37,16.09,8.56,20.79,23.2,21.1,40.17.6,33.06-16.49,58.14-48.1,67.88-27.17,8.37-54.89,10.16-82.56,1.52a68.11,68.11,0,0,1-32.58-21.26c-11.16-13.25-12-26.08-2.81-40.79,7-11.21,16.6-20,27.34-27.39,23.06-16,48.07-27,76.37-29.48C311.07,454.83,312.74,455,314.41,455Z"/></svg>